<?xml version="1.0" encoding="UTF-8" standalone="no"?>
<!DOCTYPE svg PUBLIC "-//W3C//DTD SVG 1.1//EN"
 "http://www.w3.org/Graphics/SVG/1.1/DTD/svg11.dtd">
<!-- Generated by graphviz version 10.0.1 (20240210.2158)
 -->
<!-- Title: Tree Pages: 1 -->
<svg width="1120pt" height="493pt"
 viewBox="0.00 0.00 1120.25 493.00" xmlns="http://www.w3.org/2000/svg" xmlns:xlink="http://www.w3.org/1999/xlink">
<g id="graph0" class="graph" transform="scale(1 1) rotate(0) translate(4 489)">
<title>Tree</title>
<polygon fill="white" stroke="none" points="-4,4 -4,-489 1116.25,-489 1116.25,4 -4,4"/>
<!-- 0 -->
<g id="node1" class="node">
<title>0</title>
<path fill="#eeaf81" stroke="black" d="M612.5,-485C612.5,-485 497.5,-485 497.5,-485 491.5,-485 485.5,-479 485.5,-473 485.5,-473 485.5,-399 485.5,-399 485.5,-393 491.5,-387 497.5,-387 497.5,-387 612.5,-387 612.5,-387 618.5,-387 624.5,-393 624.5,-399 624.5,-399 624.5,-473 624.5,-473 624.5,-479 618.5,-485 612.5,-485"/>
<text text-anchor="middle" x="555" y="-467.7" font-family="Helvetica,sans-Serif" font-size="14.00">node #0</text>
<text text-anchor="middle" x="555" y="-452.7" font-family="Helvetica,sans-Serif" font-size="14.00">contract &lt;= 1.5</text>
<text text-anchor="middle" x="555" y="-437.7" font-family="Helvetica,sans-Serif" font-size="14.00">gini = 0.39</text>
<text text-anchor="middle" x="555" y="-422.7" font-family="Helvetica,sans-Serif" font-size="14.00">samples = 4922</text>
<text text-anchor="middle" x="555" y="-407.7" font-family="Helvetica,sans-Serif" font-size="14.00">value = [3614, 1308]</text>
<text text-anchor="middle" x="555" y="-392.7" font-family="Helvetica,sans-Serif" font-size="14.00">class = No</text>
</g>
<!-- 1 -->
<g id="node2" class="node">
<title>1</title>
<path fill="#f9e1d1" stroke="black" d="M472.75,-351C472.75,-351 335.25,-351 335.25,-351 329.25,-351 323.25,-345 323.25,-339 323.25,-339 323.25,-265 323.25,-265 323.25,-259 329.25,-253 335.25,-253 335.25,-253 472.75,-253 472.75,-253 478.75,-253 484.75,-259 484.75,-265 484.75,-265 484.75,-339 484.75,-339 484.75,-345 478.75,-351 472.75,-351"/>
<text text-anchor="middle" x="404" y="-333.7" font-family="Helvetica,sans-Serif" font-size="14.00">node #1</text>
<text text-anchor="middle" x="404" y="-318.7" font-family="Helvetica,sans-Serif" font-size="14.00">internetservice &lt;= 1.5</text>
<text text-anchor="middle" x="404" y="-303.7" font-family="Helvetica,sans-Serif" font-size="14.00">gini = 0.491</text>
<text text-anchor="middle" x="404" y="-288.7" font-family="Helvetica,sans-Serif" font-size="14.00">samples = 2689</text>
<text text-anchor="middle" x="404" y="-273.7" font-family="Helvetica,sans-Serif" font-size="14.00">value = [1523.0, 1166.0]</text>
<text text-anchor="middle" x="404" y="-258.7" font-family="Helvetica,sans-Serif" font-size="14.00">class = No</text>
</g>
<!-- 0&#45;&gt;1 -->
<g id="edge1" class="edge">
<title>0&#45;&gt;1</title>
<path fill="none" stroke="black" d="M499.63,-386.6C489.27,-377.54 478.36,-368.01 467.77,-358.75"/>
<polygon fill="black" stroke="black" points="470.33,-356.34 460.5,-352.39 465.73,-361.61 470.33,-356.34"/>
<text text-anchor="middle" x="461.04" y="-370.54" font-family="Helvetica,sans-Serif" font-size="14.00">True</text>
</g>
<!-- 8 -->
<g id="node9" class="node">
<title>8</title>
<path fill="#e78a46" stroke="black" d="M791.62,-351C791.62,-351 638.38,-351 638.38,-351 632.38,-351 626.38,-345 626.38,-339 626.38,-339 626.38,-265 626.38,-265 626.38,-259 632.38,-253 638.38,-253 638.38,-253 791.62,-253 791.62,-253 797.62,-253 803.62,-259 803.62,-265 803.62,-265 803.62,-339 803.62,-339 803.62,-345 797.62,-351 791.62,-351"/>
<text text-anchor="middle" x="715" y="-333.7" font-family="Helvetica,sans-Serif" font-size="14.00">node #8</text>
<text text-anchor="middle" x="715" y="-318.7" font-family="Helvetica,sans-Serif" font-size="14.00">monthlycharges &lt;= 93.675</text>
<text text-anchor="middle" x="715" y="-303.7" font-family="Helvetica,sans-Serif" font-size="14.00">gini = 0.119</text>
<text text-anchor="middle" x="715" y="-288.7" font-family="Helvetica,sans-Serif" font-size="14.00">samples = 2233</text>
<text text-anchor="middle" x="715" y="-273.7" font-family="Helvetica,sans-Serif" font-size="14.00">value = [2091, 142]</text>
<text text-anchor="middle" x="715" y="-258.7" font-family="Helvetica,sans-Serif" font-size="14.00">class = No</text>
</g>
<!-- 0&#45;&gt;8 -->
<g id="edge8" class="edge">
<title>0&#45;&gt;8</title>
<path fill="none" stroke="black" d="M613.67,-386.6C624.76,-377.45 636.43,-367.82 647.76,-358.47"/>
<polygon fill="black" stroke="black" points="649.68,-361.42 655.17,-352.36 645.23,-356.02 649.68,-361.42"/>
<text text-anchor="middle" x="653.95" y="-370.48" font-family="Helvetica,sans-Serif" font-size="14.00">False</text>
</g>
<!-- 2 -->
<g id="node3" class="node">
<title>2</title>
<path fill="#efb387" stroke="black" d="M254,-217C254,-217 154,-217 154,-217 148,-217 142,-211 142,-205 142,-205 142,-131 142,-131 142,-125 148,-119 154,-119 154,-119 254,-119 254,-119 260,-119 266,-125 266,-131 266,-131 266,-205 266,-205 266,-211 260,-217 254,-217"/>
<text text-anchor="middle" x="204" y="-199.7" font-family="Helvetica,sans-Serif" font-size="14.00">node #2</text>
<text text-anchor="middle" x="204" y="-184.7" font-family="Helvetica,sans-Serif" font-size="14.00">tenure &lt;= 3.5</text>
<text text-anchor="middle" x="204" y="-169.7" font-family="Helvetica,sans-Serif" font-size="14.00">gini = 0.406</text>
<text text-anchor="middle" x="204" y="-154.7" font-family="Helvetica,sans-Serif" font-size="14.00">samples = 1215</text>
<text text-anchor="middle" x="204" y="-139.7" font-family="Helvetica,sans-Serif" font-size="14.00">value = [871, 344]</text>
<text text-anchor="middle" x="204" y="-124.7" font-family="Helvetica,sans-Serif" font-size="14.00">class = No</text>
</g>
<!-- 1&#45;&gt;2 -->
<g id="edge2" class="edge">
<title>1&#45;&gt;2</title>
<path fill="none" stroke="black" d="M330.66,-252.6C312.72,-240.76 293.54,-228.1 275.68,-216.31"/>
<polygon fill="black" stroke="black" points="278.01,-213.65 267.73,-211.06 274.15,-219.49 278.01,-213.65"/>
</g>
<!-- 5 -->
<g id="node6" class="node">
<title>5</title>
<path fill="#d6ebfa" stroke="black" d="M454,-217C454,-217 354,-217 354,-217 348,-217 342,-211 342,-205 342,-205 342,-131 342,-131 342,-125 348,-119 354,-119 354,-119 454,-119 454,-119 460,-119 466,-125 466,-131 466,-131 466,-205 466,-205 466,-211 460,-217 454,-217"/>
<text text-anchor="middle" x="404" y="-199.7" font-family="Helvetica,sans-Serif" font-size="14.00">node #5</text>
<text text-anchor="middle" x="404" y="-184.7" font-family="Helvetica,sans-Serif" font-size="14.00">tenure &lt;= 15.5</text>
<text text-anchor="middle" x="404" y="-169.7" font-family="Helvetica,sans-Serif" font-size="14.00">gini = 0.493</text>
<text text-anchor="middle" x="404" y="-154.7" font-family="Helvetica,sans-Serif" font-size="14.00">samples = 1474</text>
<text text-anchor="middle" x="404" y="-139.7" font-family="Helvetica,sans-Serif" font-size="14.00">value = [652, 822]</text>
<text text-anchor="middle" x="404" y="-124.7" font-family="Helvetica,sans-Serif" font-size="14.00">class = Yes</text>
</g>
<!-- 1&#45;&gt;5 -->
<g id="edge5" class="edge">
<title>1&#45;&gt;5</title>
<path fill="none" stroke="black" d="M404,-252.6C404,-244.89 404,-236.83 404,-228.89"/>
<polygon fill="black" stroke="black" points="407.5,-228.91 404,-218.91 400.5,-228.91 407.5,-228.91"/>
</g>
<!-- 3 -->
<g id="node4" class="node">
<title>3</title>
<path fill="#fae7d9" stroke="black" d="M112,-83C112,-83 12,-83 12,-83 6,-83 0,-77 0,-71 0,-71 0,-12 0,-12 0,-6 6,0 12,0 12,0 112,0 112,0 118,0 124,-6 124,-12 124,-12 124,-71 124,-71 124,-77 118,-83 112,-83"/>
<text text-anchor="middle" x="62" y="-65.7" font-family="Helvetica,sans-Serif" font-size="14.00">node #3</text>
<text text-anchor="middle" x="62" y="-50.7" font-family="Helvetica,sans-Serif" font-size="14.00">gini = 0.494</text>
<text text-anchor="middle" x="62" y="-35.7" font-family="Helvetica,sans-Serif" font-size="14.00">samples = 403</text>
<text text-anchor="middle" x="62" y="-20.7" font-family="Helvetica,sans-Serif" font-size="14.00">value = [223, 180]</text>
<text text-anchor="middle" x="62" y="-5.7" font-family="Helvetica,sans-Serif" font-size="14.00">class = No</text>
</g>
<!-- 2&#45;&gt;3 -->
<g id="edge3" class="edge">
<title>2&#45;&gt;3</title>
<path fill="none" stroke="black" d="M148.69,-118.51C138.35,-109.44 127.54,-99.96 117.2,-90.9"/>
<polygon fill="black" stroke="black" points="119.61,-88.36 109.78,-84.4 115,-93.62 119.61,-88.36"/>
</g>
<!-- 4 -->
<g id="node5" class="node">
<title>4</title>
<path fill="#eca16b" stroke="black" d="M254,-83C254,-83 154,-83 154,-83 148,-83 142,-77 142,-71 142,-71 142,-12 142,-12 142,-6 148,0 154,0 154,0 254,0 254,0 260,0 266,-6 266,-12 266,-12 266,-71 266,-71 266,-77 260,-83 254,-83"/>
<text text-anchor="middle" x="204" y="-65.7" font-family="Helvetica,sans-Serif" font-size="14.00">node #4</text>
<text text-anchor="middle" x="204" y="-50.7" font-family="Helvetica,sans-Serif" font-size="14.00">gini = 0.322</text>
<text text-anchor="middle" x="204" y="-35.7" font-family="Helvetica,sans-Serif" font-size="14.00">samples = 812</text>
<text text-anchor="middle" x="204" y="-20.7" font-family="Helvetica,sans-Serif" font-size="14.00">value = [648, 164]</text>
<text text-anchor="middle" x="204" y="-5.7" font-family="Helvetica,sans-Serif" font-size="14.00">class = No</text>
</g>
<!-- 2&#45;&gt;4 -->
<g id="edge4" class="edge">
<title>2&#45;&gt;4</title>
<path fill="none" stroke="black" d="M204,-118.51C204,-110.71 204,-102.61 204,-94.73"/>
<polygon fill="black" stroke="black" points="207.5,-94.91 204,-84.91 200.5,-94.91 207.5,-94.91"/>
</g>
<!-- 6 -->
<g id="node7" class="node">
<title>6</title>
<path fill="#8ec7f0" stroke="black" d="M396,-83C396,-83 296,-83 296,-83 290,-83 284,-77 284,-71 284,-71 284,-12 284,-12 284,-6 290,0 296,0 296,0 396,0 396,0 402,0 408,-6 408,-12 408,-12 408,-71 408,-71 408,-77 402,-83 396,-83"/>
<text text-anchor="middle" x="346" y="-65.7" font-family="Helvetica,sans-Serif" font-size="14.00">node #6</text>
<text text-anchor="middle" x="346" y="-50.7" font-family="Helvetica,sans-Serif" font-size="14.00">gini = 0.421</text>
<text text-anchor="middle" x="346" y="-35.7" font-family="Helvetica,sans-Serif" font-size="14.00">samples = 734</text>
<text text-anchor="middle" x="346" y="-20.7" font-family="Helvetica,sans-Serif" font-size="14.00">value = [221, 513]</text>
<text text-anchor="middle" x="346" y="-5.7" font-family="Helvetica,sans-Serif" font-size="14.00">class = Yes</text>
</g>
<!-- 5&#45;&gt;6 -->
<g id="edge6" class="edge">
<title>5&#45;&gt;6</title>
<path fill="none" stroke="black" d="M381.41,-118.51C377.61,-110.35 373.65,-101.85 369.82,-93.63"/>
<polygon fill="black" stroke="black" points="373.09,-92.36 365.69,-84.77 366.74,-95.31 373.09,-92.36"/>
</g>
<!-- 7 -->
<g id="node8" class="node">
<title>7</title>
<path fill="#f8dbc7" stroke="black" d="M560.25,-83C560.25,-83 437.75,-83 437.75,-83 431.75,-83 425.75,-77 425.75,-71 425.75,-71 425.75,-12 425.75,-12 425.75,-6 431.75,0 437.75,0 437.75,0 560.25,0 560.25,0 566.25,0 572.25,-6 572.25,-12 572.25,-12 572.25,-71 572.25,-71 572.25,-77 566.25,-83 560.25,-83"/>
<text text-anchor="middle" x="499" y="-65.7" font-family="Helvetica,sans-Serif" font-size="14.00">node #7</text>
<text text-anchor="middle" x="499" y="-50.7" font-family="Helvetica,sans-Serif" font-size="14.00">gini = 0.486</text>
<text text-anchor="middle" x="499" y="-35.7" font-family="Helvetica,sans-Serif" font-size="14.00">samples = 740</text>
<text text-anchor="middle" x="499" y="-20.7" font-family="Helvetica,sans-Serif" font-size="14.00">value = [431.0, 309.0]</text>
<text text-anchor="middle" x="499" y="-5.7" font-family="Helvetica,sans-Serif" font-size="14.00">class = No</text>
</g>
<!-- 5&#45;&gt;7 -->
<g id="edge7" class="edge">
<title>5&#45;&gt;7</title>
<path fill="none" stroke="black" d="M441,-118.51C447.51,-109.98 454.29,-101.1 460.82,-92.53"/>
<polygon fill="black" stroke="black" points="463.59,-94.67 466.87,-84.6 458.03,-90.43 463.59,-94.67"/>
</g>
<!-- 9 -->
<g id="node10" class="node">
<title>9</title>
<path fill="#e68540" stroke="black" d="M765,-217C765,-217 665,-217 665,-217 659,-217 653,-211 653,-205 653,-205 653,-131 653,-131 653,-125 659,-119 665,-119 665,-119 765,-119 765,-119 771,-119 777,-125 777,-131 777,-131 777,-205 777,-205 777,-211 771,-217 765,-217"/>
<text text-anchor="middle" x="715" y="-199.7" font-family="Helvetica,sans-Serif" font-size="14.00">node #9</text>
<text text-anchor="middle" x="715" y="-184.7" font-family="Helvetica,sans-Serif" font-size="14.00">contract &lt;= 2.5</text>
<text text-anchor="middle" x="715" y="-169.7" font-family="Helvetica,sans-Serif" font-size="14.00">gini = 0.064</text>
<text text-anchor="middle" x="715" y="-154.7" font-family="Helvetica,sans-Serif" font-size="14.00">samples = 1684</text>
<text text-anchor="middle" x="715" y="-139.7" font-family="Helvetica,sans-Serif" font-size="14.00">value = [1628, 56]</text>
<text text-anchor="middle" x="715" y="-124.7" font-family="Helvetica,sans-Serif" font-size="14.00">class = No</text>
</g>
<!-- 8&#45;&gt;9 -->
<g id="edge9" class="edge">
<title>8&#45;&gt;9</title>
<path fill="none" stroke="black" d="M715,-252.6C715,-244.89 715,-236.83 715,-228.89"/>
<polygon fill="black" stroke="black" points="718.5,-228.91 715,-218.91 711.5,-228.91 718.5,-228.91"/>
</g>
<!-- 12 -->
<g id="node13" class="node">
<title>12</title>
<path fill="#ea985e" stroke="black" d="M965.25,-217C965.25,-217 872.75,-217 872.75,-217 866.75,-217 860.75,-211 860.75,-205 860.75,-205 860.75,-131 860.75,-131 860.75,-125 866.75,-119 872.75,-119 872.75,-119 965.25,-119 965.25,-119 971.25,-119 977.25,-125 977.25,-131 977.25,-131 977.25,-205 977.25,-205 977.25,-211 971.25,-217 965.25,-217"/>
<text text-anchor="middle" x="919" y="-199.7" font-family="Helvetica,sans-Serif" font-size="14.00">node #12</text>
<text text-anchor="middle" x="919" y="-184.7" font-family="Helvetica,sans-Serif" font-size="14.00">contract &lt;= 2.5</text>
<text text-anchor="middle" x="919" y="-169.7" font-family="Helvetica,sans-Serif" font-size="14.00">gini = 0.264</text>
<text text-anchor="middle" x="919" y="-154.7" font-family="Helvetica,sans-Serif" font-size="14.00">samples = 549</text>
<text text-anchor="middle" x="919" y="-139.7" font-family="Helvetica,sans-Serif" font-size="14.00">value = [463, 86]</text>
<text text-anchor="middle" x="919" y="-124.7" font-family="Helvetica,sans-Serif" font-size="14.00">class = No</text>
</g>
<!-- 8&#45;&gt;12 -->
<g id="edge12" class="edge">
<title>8&#45;&gt;12</title>
<path fill="none" stroke="black" d="M789.8,-252.6C809.84,-239.63 831.38,-225.7 851.02,-212.99"/>
<polygon fill="black" stroke="black" points="852.73,-216.05 859.23,-207.68 848.93,-210.17 852.73,-216.05"/>
</g>
<!-- 10 -->
<g id="node11" class="node">
<title>10</title>
<path fill="#e78946" stroke="black" d="M695.25,-83C695.25,-83 602.75,-83 602.75,-83 596.75,-83 590.75,-77 590.75,-71 590.75,-71 590.75,-12 590.75,-12 590.75,-6 596.75,0 602.75,0 602.75,0 695.25,0 695.25,0 701.25,0 707.25,-6 707.25,-12 707.25,-12 707.25,-71 707.25,-71 707.25,-77 701.25,-83 695.25,-83"/>
<text text-anchor="middle" x="649" y="-65.7" font-family="Helvetica,sans-Serif" font-size="14.00">node #10</text>
<text text-anchor="middle" x="649" y="-50.7" font-family="Helvetica,sans-Serif" font-size="14.00">gini = 0.114</text>
<text text-anchor="middle" x="649" y="-35.7" font-family="Helvetica,sans-Serif" font-size="14.00">samples = 757</text>
<text text-anchor="middle" x="649" y="-20.7" font-family="Helvetica,sans-Serif" font-size="14.00">value = [711, 46]</text>
<text text-anchor="middle" x="649" y="-5.7" font-family="Helvetica,sans-Serif" font-size="14.00">class = No</text>
</g>
<!-- 9&#45;&gt;10 -->
<g id="edge10" class="edge">
<title>9&#45;&gt;10</title>
<path fill="none" stroke="black" d="M689.29,-118.51C684.92,-110.26 680.36,-101.67 675.96,-93.35"/>
<polygon fill="black" stroke="black" points="679.17,-91.93 671.39,-84.74 672.98,-95.21 679.17,-91.93"/>
</g>
<!-- 11 -->
<g id="node12" class="node">
<title>11</title>
<path fill="#e5823b" stroke="black" d="M830.25,-83C830.25,-83 737.75,-83 737.75,-83 731.75,-83 725.75,-77 725.75,-71 725.75,-71 725.75,-12 725.75,-12 725.75,-6 731.75,0 737.75,0 737.75,0 830.25,0 830.25,0 836.25,0 842.25,-6 842.25,-12 842.25,-12 842.25,-71 842.25,-71 842.25,-77 836.25,-83 830.25,-83"/>
<text text-anchor="middle" x="784" y="-65.7" font-family="Helvetica,sans-Serif" font-size="14.00">node #11</text>
<text text-anchor="middle" x="784" y="-50.7" font-family="Helvetica,sans-Serif" font-size="14.00">gini = 0.021</text>
<text text-anchor="middle" x="784" y="-35.7" font-family="Helvetica,sans-Serif" font-size="14.00">samples = 927</text>
<text text-anchor="middle" x="784" y="-20.7" font-family="Helvetica,sans-Serif" font-size="14.00">value = [917, 10]</text>
<text text-anchor="middle" x="784" y="-5.7" font-family="Helvetica,sans-Serif" font-size="14.00">class = No</text>
</g>
<!-- 9&#45;&gt;11 -->
<g id="edge11" class="edge">
<title>9&#45;&gt;11</title>
<path fill="none" stroke="black" d="M741.87,-118.51C746.45,-110.26 751.21,-101.67 755.82,-93.35"/>
<polygon fill="black" stroke="black" points="758.81,-95.16 760.6,-84.72 752.69,-91.77 758.81,-95.16"/>
</g>
<!-- 13 -->
<g id="node14" class="node">
<title>13</title>
<path fill="#eca572" stroke="black" d="M965.25,-83C965.25,-83 872.75,-83 872.75,-83 866.75,-83 860.75,-77 860.75,-71 860.75,-71 860.75,-12 860.75,-12 860.75,-6 866.75,0 872.75,0 872.75,0 965.25,0 965.25,0 971.25,0 977.25,-6 977.25,-12 977.25,-12 977.25,-71 977.25,-71 977.25,-77 971.25,-83 965.25,-83"/>
<text text-anchor="middle" x="919" y="-65.7" font-family="Helvetica,sans-Serif" font-size="14.00">node #13</text>
<text text-anchor="middle" x="919" y="-50.7" font-family="Helvetica,sans-Serif" font-size="14.00">gini = 0.347</text>
<text text-anchor="middle" x="919" y="-35.7" font-family="Helvetica,sans-Serif" font-size="14.00">samples = 273</text>
<text text-anchor="middle" x="919" y="-20.7" font-family="Helvetica,sans-Serif" font-size="14.00">value = [212, 61]</text>
<text text-anchor="middle" x="919" y="-5.7" font-family="Helvetica,sans-Serif" font-size="14.00">class = No</text>
</g>
<!-- 12&#45;&gt;13 -->
<g id="edge13" class="edge">
<title>12&#45;&gt;13</title>
<path fill="none" stroke="black" d="M919,-118.51C919,-110.71 919,-102.61 919,-94.73"/>
<polygon fill="black" stroke="black" points="922.5,-94.91 919,-84.91 915.5,-94.91 922.5,-94.91"/>
</g>
<!-- 14 -->
<g id="node15" class="node">
<title>14</title>
<path fill="#e88e4d" stroke="black" d="M1100.25,-83C1100.25,-83 1007.75,-83 1007.75,-83 1001.75,-83 995.75,-77 995.75,-71 995.75,-71 995.75,-12 995.75,-12 995.75,-6 1001.75,0 1007.75,0 1007.75,0 1100.25,0 1100.25,0 1106.25,0 1112.25,-6 1112.25,-12 1112.25,-12 1112.25,-71 1112.25,-71 1112.25,-77 1106.25,-83 1100.25,-83"/>
<text text-anchor="middle" x="1054" y="-65.7" font-family="Helvetica,sans-Serif" font-size="14.00">node #14</text>
<text text-anchor="middle" x="1054" y="-50.7" font-family="Helvetica,sans-Serif" font-size="14.00">gini = 0.165</text>
<text text-anchor="middle" x="1054" y="-35.7" font-family="Helvetica,sans-Serif" font-size="14.00">samples = 276</text>
<text text-anchor="middle" x="1054" y="-20.7" font-family="Helvetica,sans-Serif" font-size="14.00">value = [251, 25]</text>
<text text-anchor="middle" x="1054" y="-5.7" font-family="Helvetica,sans-Serif" font-size="14.00">class = No</text>
</g>
<!-- 12&#45;&gt;14 -->
<g id="edge14" class="edge">
<title>12&#45;&gt;14</title>
<path fill="none" stroke="black" d="M971.58,-118.51C981.32,-109.53 991.49,-100.15 1001.23,-91.17"/>
<polygon fill="black" stroke="black" points="1003.56,-93.78 1008.54,-84.42 998.82,-88.63 1003.56,-93.78"/>
</g>
</g>
</svg>
